<svg xmlns="http://www.w3.org/2000/svg" viewBox="0 0 571 139"><switch><g><path d="M567.4 84.2c0-1.2-1-1.6-2-1.6h-1.9V88h1v-2.2h.7l1.3 2.2h1.2l-1.5-2.4c.7-.1 1.2-.6 1.2-1.4zm-3 .8v-1.5h.9c.5 0 1.1.1 1.1.7 0 .7-.6.8-1.2.8h-.8zm1-4.4c-2.6 0-4.8 2.1-4.8 4.8s2.1 4.7 4.8 4.7 4.8-2.1 4.8-4.7-2.2-4.8-4.8-4.8zm0 8.8c-2.2 0-4-1.8-4-4s1.8-4 4-4 4 1.8 4 4-1.8 4-4 4zm-308.4-8c-7 0-10.5-6.3-10.5-12.3 0-6.1 3.8-12.1 10.2-12.1 3 0 6.8 1.5 8.2 3.6l7.4-7.4c-3.6-3.8-9.3-6-15.7-6-12.9 0-22.3 9.3-22.3 22 0 13 9.3 22 22.5 22 6.3 0 12.1-1.8 15.6-5.6l-7.2-7.7c-1.6 2-5.1 3.5-8.2 3.5zm-41.6 8.7H227V48.3h-11.5v41.8zm-20.9-18.9c0 4.9-3.2 10.2-9.1 10.2-4.6 0-7-3.3-7-10v-23h-11.5v25.9c0 8.6 4.3 17 15.8 17 5.4 0 10-4.3 12.2-7.4h.2v6.2h11V48.3h-11.5v22.9zM146 53.6h-.3c-1.6-1.8-6-6.5-13.2-6.5-11.7 0-20.8 9.2-20.8 21.9 0 12.9 8.4 22.2 20.2 22.2 5.4 0 10.5-2.9 13.4-6.2h.2v25.6H157V48.3h-11v5.3zm-11.2 27.8c-7.1 0-11.2-6.2-11.2-12.4 0-5.9 3.7-12.2 11.2-12.2 6.9 0 11.1 6.4 11.1 12.4s-4.1 12.2-11.1 12.2zm262.4-34.2c-13.1 0-22.6 9.2-22.6 21.9 0 13.1 9.7 22.3 22.6 22.3 12.9 0 22.6-9.3 22.6-22.3 0-12.7-9.5-21.9-22.6-21.9zm0 34.2c-7.5 0-10.9-6.4-10.9-12.4 0-5.9 3.4-12.2 10.9-12.2s10.9 6.3 10.9 12.2c0 6-3.4 12.4-10.9 12.4zm144-17c-5.9-1.4-8-2.2-8-4.6 0-3.3 4.2-4 6.1-4 3.6 0 7.6 2.1 9.1 4.2l6.8-6.5c-3.1-3.9-9.3-6.2-15.8-6.2-8.3 0-17.1 4.2-17.1 13.6 0 8 6.3 10.5 12.5 11.9 6.5 1.5 8.8 2.6 8.8 5.2 0 3.9-4.4 4.5-5.9 4.5-3.8 0-8.1-2.2-10.5-5l-7 7.1c3.8 4.2 10.4 6.8 17.1 6.8 11.3 0 17.9-5.4 17.9-14.2 0-8.6-8.2-11.4-14-12.8zm-21.8-16.1h-14.9l-14.9 17.3h-.3V25.4h-11.5v64.7h11.5V69.5h.3L505 90.1h15.2l-17.9-22.8 17.1-19zm-170.8-1.1c-5.3 0-9.1 2.3-12.8 5.7h-.2V25.4h-11.5v64.7h11v-5.9h.2c2.6 4.3 7.8 7.1 13.1 7.1 11.9 0 20.9-9.3 20.9-22.2 0-12.7-8.9-21.9-20.7-21.9zm-2.3 34.2c-6.9 0-11.1-6.2-11.1-12.2 0-5.9 4.2-12.4 11.1-12.4 7.5 0 11.2 6.3 11.2 12.2 0 6.2-4 12.4-11.2 12.4zm-26.6-33.1h-14.9L290 65.6h-.3V25.4h-11.5v64.7h11.5V69.5h.3l15.4 20.6h15.2l-17.9-22.8 17-19zm128.1-1.1c-13.1 0-22.6 9.2-22.6 21.9 0 13.1 9.7 22.3 22.6 22.3 12.9 0 22.6-9.3 22.6-22.3 0-12.7-9.5-21.9-22.6-21.9zm0 34.2c-7.5 0-10.9-6.4-10.9-12.4 0-5.9 3.4-12.2 10.9-12.2s10.9 6.3 10.9 12.2c0 6-3.4 12.4-10.9 12.4z"/><circle cx="50.3" cy="49.6" r="48.5" fill="#2ca01c"/><path d="M15.3 49.6c0 10.4 8.4 18.9 18.9 18.9h2.7v-7h-2.7c-6.5 0-11.9-5.3-11.9-11.9 0-6.5 5.3-11.9 11.9-11.9h6.5v36.7c0 3.9 3.1 7 7 7V30.8H34.2c-10.5 0-18.9 8.4-18.9 18.8zm51.2-18.8h-2.7v7h2.7c6.5 0 11.9 5.3 11.9 11.9S73 61.5 66.5 61.5H60V24.8c0-3.9-3.1-7-7-7v50.7h13.5c10.4 0 18.9-8.4 18.9-18.9 0-10.4-8.5-18.8-18.9-18.8z" fill="#fff"/><path d="M159.3 12.2c1.8 0 3.2-1.4 3.2-3.2s-1.4-3.2-3.2-3.2c-1.8 0-3.2 1.4-3.2 3.2s1.4 3.2 3.2 3.2zm-19.1 2.1c-3.1 0-5.7 1.9-6.6 4h-.1v-3.4h-5v21.2h5.3V24.5c0-2.8 1.6-5.7 5-5.7s4 3.1 4 5.7v11.8h5.3V22.9c-.1-4.3-2.4-8.6-7.9-8.6zm-22.5 21.9h5.3V14.9h-5.3v21.3zm96.5-24c1.8 0 3.2-1.4 3.2-3.2s-1.4-3.2-3.2-3.2c-1.8 0-3.2 1.4-3.2 3.2s1.4 3.2 3.2 3.2zm-8.6 2.7v4.7h5.9v16.5h5.3V19.6h5.9v-4.7h-17.1zm-9.1 21.3h5.3V14.9h-5.3v21.3zm-45.8-16.6h5.9v16.5h5.3V19.6h5.9v-4.7h-17.2v4.7zm35.1 7c0 2.8-1.6 5.7-5 5.7s-4-3.1-4-5.7V14.9h-5.3v13.3c0 4.3 2.3 8.6 7.8 8.6 3.1 0 5.7-1.9 6.6-4h.1v3.4h5V14.9h-5.3v11.7z"/></g></switch></svg>